<svg width="24" height="24" viewBox="0 0 24 24" fill="none" xmlns="http://www.w3.org/2000/svg">
<circle cx="12" cy="12" r="11" stroke="#0044C9" stroke-width="2"/>
<path d="M8.77811 17.2289C8.77811 17.6625 9.16066 18 9.57822 18H10.3783C10.8184 18 11.1784 17.6625 11.1784 17.25V15.75H15.1789V17.25C15.1789 17.6625 15.5392 18 15.9793 18H16.7792C17.2192 18 17.5793 17.6625 17.5793 17.25L17.5795 14.25H8.80062L8.77811 17.2289ZM19.9321 12.0211L19.4445 11.3325C18.7382 10.3423 17.5598 9.75047 16.2916 9.75047H10.3783L8.36806 7.8457C8.87138 7.37695 8.93388 6.65039 8.55559 6.11414C8.47307 5.99402 8.28805 5.97644 8.17804 6.07898L7.1304 7.06054L6.05926 6.05554C5.96875 5.97058 5.81873 5.98523 5.74997 6.08484C5.44368 6.52148 5.49369 7.11609 5.90312 7.5C5.98438 7.57617 6.08439 7.62304 6.1844 7.67578C6.13127 7.71679 6.06876 7.74902 6.02501 7.80176L4.15901 10.131C3.97775 10.357 3.94964 10.6617 4.08403 10.9148L4.44358 11.5828C4.57797 11.8378 4.85613 11.9988 5.15617 11.9988H5.93124C6.14377 11.9988 6.34705 11.9197 6.49707 11.7791L7.45044 10.9675L8.80162 13.4987H17.5803L17.58 11.6764C17.9863 11.9607 18.0363 12.0866 18.5834 12.8542C18.7053 13.027 18.9522 13.071 19.1367 12.9567L19.8025 12.5435C20.0071 12.4266 20.0571 12.1922 19.9321 12.0211ZM11.406 11.7L10.9934 12.0797L11.0903 12.6129C11.1059 12.7096 10.9997 12.7799 10.909 12.7359L10.3783 12.4852L9.89076 12.7359C9.77824 12.7781 9.69323 12.7078 9.71074 12.6117L9.80762 12.0785L9.39319 11.7C9.31818 11.6326 9.36194 11.5154 9.46508 11.5008L10.0339 11.4246L10.2902 10.9383C10.3339 10.8533 10.4683 10.8533 10.5152 10.9383L10.7685 11.4246L11.3406 11.5008C11.441 11.5172 11.481 11.6344 11.406 11.7ZM14.2063 11.7L13.7938 12.078L13.8907 12.6112C13.9063 12.7079 13.8 12.7782 13.7094 12.7343L13.1787 12.4852L12.6691 12.7343C12.5785 12.7782 12.4722 12.7079 12.4878 12.6112L12.5847 12.078L12.1722 11.7C12.0972 11.6326 12.1409 11.5154 12.2441 11.5008L12.8129 11.4246L13.0692 10.9383C13.1129 10.8533 13.2473 10.8533 13.2942 10.9383L13.5475 11.4246L14.1196 11.5008C14.2413 11.5172 14.2813 11.6344 14.2063 11.7ZM17.0067 11.7L16.5941 12.078L16.691 12.6112C16.7066 12.7079 16.6004 12.7782 16.5097 12.7343L16.0002 12.4852L15.4906 12.7343C15.4 12.7782 15.2937 12.7079 15.3093 12.6112L15.4062 12.078L14.9937 11.7C14.9187 11.6326 14.9624 11.5154 15.0656 11.5008L15.6344 11.4246L15.8907 10.9383C15.9344 10.8533 16.0688 10.8533 16.1157 10.9383L16.369 11.4246L16.941 11.5008C17.0417 11.5172 17.0817 11.6344 17.0067 11.7Z" fill="#0044C9"/>
</svg>
