<svg width="24" height="24" viewBox="0 0 24 24" fill="none" xmlns="http://www.w3.org/2000/svg">
<circle cx="12" cy="12" r="11" stroke="#E81A23" stroke-width="2"/>
<path d="M17.9 10.5511C17.9 8.5787 16.3333 7 14.4197 7H9.48031C7.56669 7 6 8.59812 6 10.5511L6.00055 11.9792H17.8809V10.5511H17.9ZM9.85656 10.0891L9.42453 10.5214L9.52844 11.1297C9.54484 11.2385 9.43273 11.3222 9.33703 11.2692L8.80109 10.9819L8.26406 11.2676C8.17153 11.3212 8.05669 11.2386 8.07309 11.1091L8.177 10.5009L7.74497 10.0686C7.66578 10.011 7.70953 9.87706 7.81606 9.86143L8.415 9.77215L8.68297 9.21705C8.72945 9.11661 8.87164 9.1194 8.91528 9.21705L9.18281 9.77215L9.78219 9.86143C9.89156 9.87706 9.93313 10.011 9.85656 10.0891ZM13.0066 10.0891L12.5745 10.5214L12.6784 11.1297C12.6948 11.2385 12.5827 11.3222 12.487 11.2692L11.95 10.9819L11.4141 11.2692C11.3222 11.3212 11.2063 11.2386 11.2238 11.1091L11.3266 10.5199L10.8945 10.0875C10.8152 10.0094 10.859 9.87554 10.9656 9.86166L11.565 9.77215L11.833 9.21705C11.8795 9.11661 12.0216 9.1194 12.0653 9.21705L12.3328 9.77215L12.9315 9.86143C13.0416 9.87706 13.0831 10.011 13.0066 10.0891ZM16.1566 10.0891L15.7245 10.5214L15.8284 11.1297C15.8448 11.2385 15.7327 11.3222 15.637 11.2692L15.1011 10.9819L14.5652 11.2692C14.4722 11.3222 14.3573 11.2385 14.3737 11.1297L14.4777 10.5214L14.0456 10.0891C13.9663 10.011 14.0101 9.8771 14.1167 9.86322L14.7154 9.77394L14.9834 9.21884C15.0299 9.1184 15.1721 9.12119 15.2157 9.21884L15.4837 9.77394L16.0824 9.86322C16.1916 9.87706 16.2331 10.011 16.1566 10.0891ZM19.65 13.4081H18.95C18.7575 13.4081 18.6197 13.5688 18.6197 13.7451V15.1734C18.6197 15.3686 18.4611 15.5104 18.2894 15.5104C18.098 15.5104 17.9591 15.3486 17.9591 15.1734L17.9584 12.6936L6.00055 12.6938V16.245C6.00055 16.6378 6.31555 16.9391 6.68086 16.9391L8.09956 16.9793C8.48456 16.9793 8.80044 16.6579 8.80044 16.2651V14.837L12.9807 14.8366V16.2649C12.9807 16.6577 13.2949 16.9791 13.6799 16.9791L15.0807 16.9794C15.4657 16.9794 15.7611 16.658 15.7611 16.2853L15.7602 14.1423L16.461 14.1423V15.1077C16.461 16.0404 17.1153 16.894 18.0247 16.9904C19.1097 17.0998 20 16.2606 20 15.1937V13.7657C20 13.5889 19.8425 13.4081 19.65 13.4081Z" fill="#E81A23"/>
</svg>
