<svg width="16" height="16" viewBox="0 0 16 16" fill="none" xmlns="http://www.w3.org/2000/svg">
<path fill-rule="evenodd" clip-rule="evenodd" d="M0 4C0 1.79086 1.79086 0 4 0H12C14.2091 0 16 1.79086 16 4V12C16 14.2091 14.2091 16 12 16H4C1.79086 16 0 14.2091 0 12V4ZM6.41421 7L8.70711 4.70711C9.09763 4.31659 9.09763 3.68341 8.70711 3.29289C8.31658 2.90237 7.68342 2.90237 7.29289 3.29289L3.29372 7.29207L3.29289 7.29289C3.29285 7.29294 3.2928 7.29298 3.29276 7.29303C3.11187 7.47398 3 7.72392 3 8C3 8.24162 3.0857 8.46324 3.22835 8.63609C3.24854 8.66052 3.27003 8.68425 3.29289 8.70711L3.29372 8.70793L7.29289 12.7071C7.68342 13.0976 8.31658 13.0976 8.70711 12.7071C9.09763 12.3166 9.09763 11.6834 8.70711 11.2929L6.41421 9H12C12.5523 9 13 8.55229 13 8C13 7.44771 12.5523 7 12 7H6.41421Z" fill="white"/>
</svg>
