<svg width="220" height="76" viewBox="0 0 220 76" fill="none" xmlns="http://www.w3.org/2000/svg">
<path d="M11.5 37C11.5 37 21 37 56.5 26.75C92 16.5 104.5 26.75 104.5 26.75L197.5 16.5L180 76H0L11.5 37Z" fill="#EFE97C"/>
<path d="M8.41406 59.5781C9.77344 59.5781 10.7917 59.8385 11.4688 60.3594C12.1458 60.8802 12.4844 61.6901 12.4844 62.7891C12.4844 63.3516 12.3932 63.8516 12.2109 64.2891C12.0339 64.7214 11.7656 65.0859 11.4062 65.3828C11.0469 65.6797 10.5964 65.9036 10.0547 66.0547C9.51823 66.2057 8.89062 66.2812 8.17188 66.2812H6.41406V71H5.60938V59.5781H8.41406ZM8.32812 60.2891H6.41406V65.5703H8.09375C8.83333 65.5703 9.46875 65.487 10 65.3203C10.5312 65.1484 10.9401 64.862 11.2266 64.4609C11.513 64.0599 11.6562 63.513 11.6562 62.8203C11.6562 61.9401 11.3854 61.2995 10.8438 60.8984C10.3021 60.4922 9.46354 60.2891 8.32812 60.2891ZM15.5703 71H14.7734V58.8438H15.5703V71ZM21.3594 62.3594C22.2917 62.3594 22.9896 62.5938 23.4531 63.0625C23.9167 63.5312 24.1484 64.2786 24.1484 65.3047V71H23.5391L23.3984 69.5156H23.3516C23.1693 69.8333 22.9479 70.1172 22.6875 70.3672C22.4271 70.612 22.1068 70.8047 21.7266 70.9453C21.3516 71.0859 20.8932 71.1562 20.3516 71.1562C19.8047 71.1562 19.3359 71.0651 18.9453 70.8828C18.5599 70.7005 18.2604 70.4349 18.0469 70.0859C17.8385 69.737 17.7344 69.3125 17.7344 68.8125C17.7344 67.9688 18.0833 67.3281 18.7812 66.8906C19.4792 66.4479 20.4818 66.1979 21.7891 66.1406L23.3672 66.0625V65.4453C23.3672 64.5755 23.1953 63.9557 22.8516 63.5859C22.5078 63.2161 22 63.0312 21.3281 63.0312C20.8906 63.0312 20.4688 63.0885 20.0625 63.2031C19.6615 63.3125 19.2526 63.4714 18.8359 63.6797L18.5859 63.0234C18.9922 62.8307 19.4271 62.6719 19.8906 62.5469C20.3594 62.4219 20.849 62.3594 21.3594 62.3594ZM23.3594 66.6797L21.875 66.7422C20.7969 66.7943 19.9766 66.987 19.4141 67.3203C18.8516 67.6536 18.5703 68.1536 18.5703 68.8203C18.5703 69.3568 18.737 69.7682 19.0703 70.0547C19.4089 70.3411 19.8776 70.4844 20.4766 70.4844C21.4089 70.4844 22.1198 70.2188 22.6094 69.6875C23.1042 69.1562 23.3542 68.4323 23.3594 67.5156V66.6797ZM25.4766 62.5078H26.3125L28.375 67.8984C28.5 68.2161 28.6094 68.5104 28.7031 68.7812C28.8021 69.0469 28.888 69.2917 28.9609 69.5156C29.0339 69.7344 29.0938 69.9349 29.1406 70.1172H29.1875C29.2656 69.8776 29.3698 69.5703 29.5 69.1953C29.6302 68.8151 29.7786 68.3932 29.9453 67.9297L31.9844 62.5078H32.8281L28.9531 72.5938C28.7656 73.0833 28.5599 73.4974 28.3359 73.8359C28.112 74.1797 27.849 74.4375 27.5469 74.6094C27.2448 74.7865 26.8802 74.875 26.4531 74.875C26.2604 74.875 26.0859 74.8594 25.9297 74.8281C25.7734 74.8021 25.6224 74.7656 25.4766 74.7188V74.0391C25.612 74.0807 25.75 74.1146 25.8906 74.1406C26.0365 74.1719 26.1953 74.1875 26.3672 74.1875C26.6641 74.1875 26.9193 74.125 27.1328 74C27.3516 73.8802 27.5469 73.6927 27.7188 73.4375C27.8906 73.1823 28.0521 72.8568 28.2031 72.4609L28.7812 70.9531L25.4766 62.5078ZM40.6719 70.4766C40.9167 70.4766 41.1432 70.4583 41.3516 70.4219C41.5651 70.3854 41.7526 70.3385 41.9141 70.2812V70.9375C41.7474 70.9948 41.5521 71.0443 41.3281 71.0859C41.1042 71.1328 40.8568 71.1562 40.5859 71.1562C40.1068 71.1562 39.7083 71.0677 39.3906 70.8906C39.0729 70.7083 38.8333 70.4349 38.6719 70.0703C38.5104 69.7005 38.4297 69.2318 38.4297 68.6641V63.1641H37.1641V62.6953L38.4219 62.4531L38.6953 60.4531H39.2188V62.5078H41.8672V63.1641H39.2188V68.6172C39.2188 69.2266 39.3307 69.6901 39.5547 70.0078C39.7839 70.3203 40.1562 70.4766 40.6719 70.4766ZM50.7812 66.7422C50.7812 67.3984 50.7005 67.9974 50.5391 68.5391C50.3776 69.0755 50.138 69.5391 49.8203 69.9297C49.5026 70.3203 49.1068 70.6224 48.6328 70.8359C48.1641 71.0495 47.6172 71.1562 46.9922 71.1562C46.3984 71.1562 45.8698 71.0521 45.4062 70.8438C44.9427 70.6302 44.5495 70.3281 44.2266 69.9375C43.9089 69.5469 43.6667 69.0833 43.5 68.5469C43.3333 68.0052 43.25 67.4036 43.25 66.7422C43.25 65.8307 43.401 65.0469 43.7031 64.3906C44.0104 63.7292 44.4479 63.224 45.0156 62.875C45.5885 62.5208 46.2734 62.3438 47.0703 62.3438C47.8932 62.3438 48.5781 62.5312 49.125 62.9062C49.6771 63.276 50.0911 63.7917 50.3672 64.4531C50.6432 65.1146 50.7812 65.8776 50.7812 66.7422ZM44.0625 66.7422C44.0625 67.487 44.1693 68.138 44.3828 68.6953C44.5964 69.2526 44.9193 69.6875 45.3516 70C45.7891 70.3125 46.3411 70.4688 47.0078 70.4688C47.6901 70.4688 48.25 70.3125 48.6875 70C49.125 69.6875 49.4479 69.25 49.6562 68.6875C49.8646 68.125 49.9688 67.4766 49.9688 66.7422C49.9688 66.0286 49.8698 65.3932 49.6719 64.8359C49.474 64.2786 49.1615 63.8411 48.7344 63.5234C48.3073 63.2005 47.75 63.0391 47.0625 63.0391C46.0781 63.0391 45.3307 63.3672 44.8203 64.0234C44.3151 64.6797 44.0625 65.5859 44.0625 66.7422ZM66.0469 62.3438C66.8646 62.3438 67.5104 62.5807 67.9844 63.0547C68.4583 63.5286 68.6953 64.276 68.6953 65.2969V71H67.9219V65.3281C67.9219 64.5417 67.7422 63.9635 67.3828 63.5938C67.0234 63.224 66.5495 63.0391 65.9609 63.0391C65.1536 63.0391 64.5208 63.276 64.0625 63.75C63.6094 64.2188 63.3828 64.9583 63.3828 65.9688V71H62.6016V65.3281C62.6016 64.8021 62.5182 64.3724 62.3516 64.0391C62.1901 63.7005 61.9635 63.4505 61.6719 63.2891C61.3802 63.1224 61.0365 63.0391 60.6406 63.0391C60.1146 63.0391 59.6589 63.1484 59.2734 63.3672C58.888 63.5807 58.5911 63.9141 58.3828 64.3672C58.1745 64.8151 58.0703 65.3854 58.0703 66.0781V71H57.2812V62.5078H57.9219L58.0391 63.8984H58.0859C58.2266 63.6224 58.4141 63.3672 58.6484 63.1328C58.8828 62.8984 59.1719 62.7083 59.5156 62.5625C59.8646 62.4167 60.2734 62.3438 60.7422 62.3438C61.3516 62.3438 61.8672 62.4818 62.2891 62.7578C62.7161 63.0286 63.013 63.4323 63.1797 63.9688H63.2344C63.4635 63.4583 63.8177 63.0599 64.2969 62.7734C64.7812 62.487 65.3646 62.3438 66.0469 62.3438ZM78.4688 66.7422C78.4688 67.3984 78.388 67.9974 78.2266 68.5391C78.0651 69.0755 77.8255 69.5391 77.5078 69.9297C77.1901 70.3203 76.7943 70.6224 76.3203 70.8359C75.8516 71.0495 75.3047 71.1562 74.6797 71.1562C74.0859 71.1562 73.5573 71.0521 73.0938 70.8438C72.6302 70.6302 72.237 70.3281 71.9141 69.9375C71.5964 69.5469 71.3542 69.0833 71.1875 68.5469C71.0208 68.0052 70.9375 67.4036 70.9375 66.7422C70.9375 65.8307 71.0885 65.0469 71.3906 64.3906C71.6979 63.7292 72.1354 63.224 72.7031 62.875C73.276 62.5208 73.9609 62.3438 74.7578 62.3438C75.5807 62.3438 76.2656 62.5312 76.8125 62.9062C77.3646 63.276 77.7786 63.7917 78.0547 64.4531C78.3307 65.1146 78.4688 65.8776 78.4688 66.7422ZM71.75 66.7422C71.75 67.487 71.8568 68.138 72.0703 68.6953C72.2839 69.2526 72.6068 69.6875 73.0391 70C73.4766 70.3125 74.0286 70.4688 74.6953 70.4688C75.3776 70.4688 75.9375 70.3125 76.375 70C76.8125 69.6875 77.1354 69.25 77.3438 68.6875C77.5521 68.125 77.6562 67.4766 77.6562 66.7422C77.6562 66.0286 77.5573 65.3932 77.3594 64.8359C77.1615 64.2786 76.849 63.8411 76.4219 63.5234C75.9948 63.2005 75.4375 63.0391 74.75 63.0391C73.7656 63.0391 73.0182 63.3672 72.5078 64.0234C72.0026 64.6797 71.75 65.5859 71.75 66.7422ZM82.6641 71L79.4062 62.5078H80.2422L82.4219 68.2969C82.5573 68.6458 82.6771 68.9818 82.7812 69.3047C82.8906 69.6224 82.9818 69.9115 83.0547 70.1719H83.0938C83.1771 69.9115 83.2708 69.6198 83.375 69.2969C83.4844 68.974 83.6042 68.6406 83.7344 68.2969L85.9141 62.5078H86.7578L83.4922 71H82.6641ZM91.3906 62.3438C92.1146 62.3438 92.7161 62.513 93.1953 62.8516C93.6797 63.1901 94.0391 63.6536 94.2734 64.2422C94.513 64.8307 94.6328 65.5052 94.6328 66.2656V66.8359H88.5C88.5 68.0026 88.7682 68.8984 89.3047 69.5234C89.8464 70.1484 90.6198 70.4609 91.625 70.4609C92.151 70.4609 92.6068 70.4193 92.9922 70.3359C93.3828 70.2474 93.8151 70.099 94.2891 69.8906V70.6172C93.8724 70.8047 93.4557 70.9401 93.0391 71.0234C92.6224 71.112 92.1432 71.1562 91.6016 71.1562C90.7422 71.1562 90.0208 70.9792 89.4375 70.625C88.8594 70.2656 88.4219 69.7604 88.125 69.1094C87.8333 68.4583 87.6875 67.6979 87.6875 66.8281C87.6875 65.9792 87.8281 65.2161 88.1094 64.5391C88.3958 63.862 88.8125 63.3281 89.3594 62.9375C89.9115 62.5417 90.5885 62.3438 91.3906 62.3438ZM91.3828 63.0234C90.5703 63.0234 89.9115 63.2943 89.4062 63.8359C88.9062 64.3724 88.612 65.1484 88.5234 66.1641H93.8125C93.8125 65.5443 93.724 64.9974 93.5469 64.5234C93.3698 64.0495 93.1016 63.6823 92.7422 63.4219C92.388 63.1562 91.9349 63.0234 91.3828 63.0234ZM103.422 70.4766C103.667 70.4766 103.893 70.4583 104.102 70.4219C104.315 70.3854 104.503 70.3385 104.664 70.2812V70.9375C104.497 70.9948 104.302 71.0443 104.078 71.0859C103.854 71.1328 103.607 71.1562 103.336 71.1562C102.857 71.1562 102.458 71.0677 102.141 70.8906C101.823 70.7083 101.583 70.4349 101.422 70.0703C101.26 69.7005 101.18 69.2318 101.18 68.6641V63.1641H99.9141V62.6953L101.172 62.4531L101.445 60.4531H101.969V62.5078H104.617V63.1641H101.969V68.6172C101.969 69.2266 102.081 69.6901 102.305 70.0078C102.534 70.3203 102.906 70.4766 103.422 70.4766ZM107.273 58.8438V62.8125C107.273 63.0417 107.268 63.2552 107.258 63.4531C107.253 63.651 107.242 63.8516 107.227 64.0547H107.281C107.422 63.7318 107.622 63.4427 107.883 63.1875C108.148 62.9323 108.474 62.7292 108.859 62.5781C109.25 62.4271 109.701 62.3516 110.211 62.3516C110.857 62.3516 111.398 62.4635 111.836 62.6875C112.279 62.9062 112.615 63.2422 112.844 63.6953C113.073 64.1484 113.188 64.7318 113.188 65.4453V71H112.406V65.4922C112.406 64.6484 112.214 64.0286 111.828 63.6328C111.443 63.237 110.883 63.0391 110.148 63.0391C109.523 63.0391 108.997 63.1615 108.57 63.4062C108.143 63.6458 107.82 64.0104 107.602 64.5C107.383 64.9844 107.273 65.5911 107.273 66.3203V71H106.484V58.8438H107.273ZM119.156 62.3438C119.88 62.3438 120.482 62.513 120.961 62.8516C121.445 63.1901 121.805 63.6536 122.039 64.2422C122.279 64.8307 122.398 65.5052 122.398 66.2656V66.8359H116.266C116.266 68.0026 116.534 68.8984 117.07 69.5234C117.612 70.1484 118.385 70.4609 119.391 70.4609C119.917 70.4609 120.372 70.4193 120.758 70.3359C121.148 70.2474 121.581 70.099 122.055 69.8906V70.6172C121.638 70.8047 121.221 70.9401 120.805 71.0234C120.388 71.112 119.909 71.1562 119.367 71.1562C118.508 71.1562 117.786 70.9792 117.203 70.625C116.625 70.2656 116.188 69.7604 115.891 69.1094C115.599 68.4583 115.453 67.6979 115.453 66.8281C115.453 65.9792 115.594 65.2161 115.875 64.5391C116.161 63.862 116.578 63.3281 117.125 62.9375C117.677 62.5417 118.354 62.3438 119.156 62.3438ZM119.148 63.0234C118.336 63.0234 117.677 63.2943 117.172 63.8359C116.672 64.3724 116.378 65.1484 116.289 66.1641H121.578C121.578 65.5443 121.49 64.9974 121.312 64.5234C121.135 64.0495 120.867 63.6823 120.508 63.4219C120.154 63.1562 119.701 63.0234 119.148 63.0234ZM137.656 62.3438C138.474 62.3438 139.12 62.5807 139.594 63.0547C140.068 63.5286 140.305 64.276 140.305 65.2969V71H139.531V65.3281C139.531 64.5417 139.352 63.9635 138.992 63.5938C138.633 63.224 138.159 63.0391 137.57 63.0391C136.763 63.0391 136.13 63.276 135.672 63.75C135.219 64.2188 134.992 64.9583 134.992 65.9688V71H134.211V65.3281C134.211 64.8021 134.128 64.3724 133.961 64.0391C133.799 63.7005 133.573 63.4505 133.281 63.2891C132.99 63.1224 132.646 63.0391 132.25 63.0391C131.724 63.0391 131.268 63.1484 130.883 63.3672C130.497 63.5807 130.201 63.9141 129.992 64.3672C129.784 64.8151 129.68 65.3854 129.68 66.0781V71H128.891V62.5078H129.531L129.648 63.8984H129.695C129.836 63.6224 130.023 63.3672 130.258 63.1328C130.492 62.8984 130.781 62.7083 131.125 62.5625C131.474 62.4167 131.883 62.3438 132.352 62.3438C132.961 62.3438 133.477 62.4818 133.898 62.7578C134.326 63.0286 134.622 63.4323 134.789 63.9688H134.844C135.073 63.4583 135.427 63.0599 135.906 62.7734C136.391 62.487 136.974 62.3438 137.656 62.3438ZM146 62.3594C146.932 62.3594 147.63 62.5938 148.094 63.0625C148.557 63.5312 148.789 64.2786 148.789 65.3047V71H148.18L148.039 69.5156H147.992C147.81 69.8333 147.589 70.1172 147.328 70.3672C147.068 70.612 146.747 70.8047 146.367 70.9453C145.992 71.0859 145.534 71.1562 144.992 71.1562C144.445 71.1562 143.977 71.0651 143.586 70.8828C143.201 70.7005 142.901 70.4349 142.688 70.0859C142.479 69.737 142.375 69.3125 142.375 68.8125C142.375 67.9688 142.724 67.3281 143.422 66.8906C144.12 66.4479 145.122 66.1979 146.43 66.1406L148.008 66.0625V65.4453C148.008 64.5755 147.836 63.9557 147.492 63.5859C147.148 63.2161 146.641 63.0312 145.969 63.0312C145.531 63.0312 145.109 63.0885 144.703 63.2031C144.302 63.3125 143.893 63.4714 143.477 63.6797L143.227 63.0234C143.633 62.8307 144.068 62.6719 144.531 62.5469C145 62.4219 145.49 62.3594 146 62.3594ZM148 66.6797L146.516 66.7422C145.438 66.7943 144.617 66.987 144.055 67.3203C143.492 67.6536 143.211 68.1536 143.211 68.8203C143.211 69.3568 143.378 69.7682 143.711 70.0547C144.049 70.3411 144.518 70.4844 145.117 70.4844C146.049 70.4844 146.76 70.2188 147.25 69.6875C147.745 69.1562 147.995 68.4323 148 67.5156V66.6797ZM154.898 62.3594C155.122 62.3594 155.333 62.3724 155.531 62.3984C155.729 62.4245 155.914 62.4609 156.086 62.5078L155.961 63.2344C155.789 63.1875 155.615 63.1536 155.438 63.1328C155.26 63.1068 155.07 63.0938 154.867 63.0938C154.466 63.0938 154.107 63.1693 153.789 63.3203C153.477 63.4714 153.211 63.6875 152.992 63.9688C152.773 64.25 152.607 64.5885 152.492 64.9844C152.378 65.3802 152.32 65.8229 152.32 66.3125V71H151.523V62.5078H152.203L152.281 64.1094H152.328C152.458 63.7812 152.641 63.487 152.875 63.2266C153.115 62.9609 153.404 62.75 153.742 62.5938C154.081 62.4375 154.466 62.3594 154.898 62.3594ZM158.539 58.8438V64.9766C158.539 65.3568 158.534 65.7448 158.523 66.1406C158.518 66.5312 158.51 66.9219 158.5 67.3125H158.516C158.667 67.1354 158.823 66.9505 158.984 66.7578C159.151 66.5599 159.315 66.3698 159.477 66.1875L162.836 62.5078H163.789L160.438 66.1484L164.086 71H163.141L159.898 66.6719L158.539 68.1016V71H157.75V58.8438H158.539ZM168.719 62.3438C169.443 62.3438 170.044 62.513 170.523 62.8516C171.008 63.1901 171.367 63.6536 171.602 64.2422C171.841 64.8307 171.961 65.5052 171.961 66.2656V66.8359H165.828C165.828 68.0026 166.096 68.8984 166.633 69.5234C167.174 70.1484 167.948 70.4609 168.953 70.4609C169.479 70.4609 169.935 70.4193 170.32 70.3359C170.711 70.2474 171.143 70.099 171.617 69.8906V70.6172C171.201 70.8047 170.784 70.9401 170.367 71.0234C169.951 71.112 169.471 71.1562 168.93 71.1562C168.07 71.1562 167.349 70.9792 166.766 70.625C166.188 70.2656 165.75 69.7604 165.453 69.1094C165.161 68.4583 165.016 67.6979 165.016 66.8281C165.016 65.9792 165.156 65.2161 165.438 64.5391C165.724 63.862 166.141 63.3281 166.688 62.9375C167.24 62.5417 167.917 62.3438 168.719 62.3438ZM168.711 63.0234C167.898 63.0234 167.24 63.2943 166.734 63.8359C166.234 64.3724 165.94 65.1484 165.852 66.1641H171.141C171.141 65.5443 171.052 64.9974 170.875 64.5234C170.698 64.0495 170.43 63.6823 170.07 63.4219C169.716 63.1562 169.263 63.0234 168.711 63.0234ZM176.594 70.4766C176.839 70.4766 177.065 70.4583 177.273 70.4219C177.487 70.3854 177.674 70.3385 177.836 70.2812V70.9375C177.669 70.9948 177.474 71.0443 177.25 71.0859C177.026 71.1328 176.779 71.1562 176.508 71.1562C176.029 71.1562 175.63 71.0677 175.312 70.8906C174.995 70.7083 174.755 70.4349 174.594 70.0703C174.432 69.7005 174.352 69.2318 174.352 68.6641V63.1641H173.086V62.6953L174.344 62.4531L174.617 60.4531H175.141V62.5078H177.789V63.1641H175.141V68.6172C175.141 69.2266 175.253 69.6901 175.477 70.0078C175.706 70.3203 176.078 70.4766 176.594 70.4766Z" fill="black"/>
<path d="M25.44 14L25.84 24.04H25.08C23.9067 20.4933 22.8667 18.08 21.96 16.8C21.0533 15.4933 19.7467 14.84 18.04 14.84H17.56V41.16H20.96V42H6.36V41.16H9.76V14.84H9.24C7.53333 14.84 6.21333 15.52 5.28 16.88C4.34667 18.2133 3.32 20.6 2.2 24.04H1.44L1.84 14H25.44ZM50.7141 42H41.5941L41.1541 39.08C40.7274 40.1467 40.0874 40.9733 39.2341 41.56C38.4074 42.12 37.1674 42.4 35.5141 42.4C31.3807 42.4 29.3141 40.1733 29.3141 35.72V23.68H27.0741V22.96H36.7541V36.68C36.7541 38.28 36.8607 39.3333 37.0741 39.84C37.3141 40.3467 37.7674 40.6 38.4341 40.6C39.1274 40.6 39.7407 40.1867 40.2741 39.36C40.8074 38.5333 41.0741 37.3867 41.0741 35.92V23.68H39.2341V22.96H48.5141V41.28H50.7141V42ZM67.5728 20.88L68.6928 20.2C68.8528 19.3733 68.5328 18.96 67.7328 18.96C66.5861 18.96 66.0128 19.84 66.0128 21.6C66.0128 22.2933 66.1061 23.0933 66.2928 24C68.3195 25.36 69.3328 27.1067 69.3328 29.24C69.3328 31.3467 68.5995 32.9867 67.1328 34.16C65.6661 35.3333 63.6795 35.92 61.1728 35.92C60.1328 35.92 59.0528 35.8133 57.9328 35.6C56.7595 36.3467 56.1728 36.9067 56.1728 37.28C56.1728 37.6533 57.0261 37.84 58.7328 37.84H62.8128C68.8661 37.84 71.8928 40.0133 71.8928 44.36C71.8928 46.7067 70.9728 48.56 69.1328 49.92C67.3195 51.3067 64.4795 52 60.6128 52C54.0261 52 50.7328 50.5733 50.7328 47.72C50.7328 46.1733 51.7595 45.1067 53.8128 44.52L56.2128 45.6C55.9995 46.3733 55.8928 47.1067 55.8928 47.8C55.8928 50.0933 57.5995 51.24 61.0128 51.24C63.0928 51.24 64.6928 50.8533 65.8128 50.08C66.9328 49.3067 67.4928 48.3467 67.4928 47.2C67.4928 46.0533 67.1461 45.28 66.4528 44.88C65.7861 44.5067 64.4395 44.32 62.4128 44.32H58.5328C56.3728 44.32 54.8261 43.96 53.8928 43.24C52.9595 42.52 52.4928 41.64 52.4928 40.6C52.4928 39.5333 52.8261 38.6533 53.4928 37.96C54.1595 37.24 55.3461 36.36 57.0528 35.32C53.9595 34.44 52.4128 32.4133 52.4128 29.24C52.4128 27.24 53.1328 25.6267 54.5728 24.4C56.0128 23.1733 58.1728 22.56 61.0528 22.56C62.7861 22.56 64.2661 22.8933 65.4928 23.56C65.3328 22.84 65.2528 22.1867 65.2528 21.6C65.2528 20.1067 65.6528 19.0267 66.4528 18.36C67.2528 17.6933 68.1461 17.36 69.1328 17.36C70.1195 17.36 70.9061 17.6267 71.4928 18.16C72.1061 18.6667 72.4128 19.3733 72.4128 20.28C72.4128 21.1867 72.1728 21.8667 71.6928 22.32C71.2128 22.7467 70.6261 22.96 69.9328 22.96C69.2661 22.96 68.7061 22.7867 68.2528 22.44C67.8261 22.0667 67.5995 21.5467 67.5728 20.88ZM59.0928 28.36V30.52C59.0928 32.3067 59.2395 33.52 59.5328 34.16C59.8528 34.8 60.3195 35.12 60.9328 35.12C61.5728 35.12 62.0261 34.8133 62.2928 34.2C62.5861 33.56 62.7328 32.2667 62.7328 30.32V28.36C62.7328 26.28 62.5995 24.92 62.3328 24.28C62.0661 23.6133 61.6128 23.28 60.9728 23.28C60.3595 23.28 59.8928 23.6267 59.5728 24.32C59.2528 24.9867 59.0928 26.3333 59.0928 28.36ZM72.4313 22.96H82.0713V26.64C82.9513 23.92 84.8846 22.56 87.8713 22.56C90.8846 22.56 92.7113 24 93.3513 26.88C94.2846 24 96.2446 22.56 99.2313 22.56C103.151 22.56 105.111 24.7867 105.111 29.24V41.28H107.351V42H96.2713V41.28H97.6713V28.28C97.6713 26.2533 97.4979 25.0667 97.1513 24.72C96.9913 24.56 96.7779 24.48 96.5113 24.48C95.7379 24.48 95.0579 25 94.4713 26.04C93.8846 27.08 93.5913 28.4 93.5913 30V41.28H95.0313V42H84.7513V41.28H86.1513V28.28C86.1513 26.2533 85.9779 25.0667 85.6313 24.72C85.4713 24.56 85.2579 24.48 84.9913 24.48C84.2446 24.48 83.5646 25.0533 82.9513 26.2C82.3646 27.32 82.0713 28.6667 82.0713 30.24V41.28H83.5113V42H72.4313V41.28H74.6313V23.68H72.4313V22.96ZM117.539 32.6H118.699V29.52C118.699 26.9867 118.552 25.2933 118.259 24.44C117.992 23.56 117.459 23.12 116.659 23.12C116.179 23.12 115.739 23.2533 115.339 23.52C114.966 23.76 114.779 24.1067 114.779 24.56C114.779 24.9867 114.859 25.4267 115.019 25.88H116.019C116.232 26.44 116.339 27.12 116.339 27.92C116.339 28.6933 116.006 29.3733 115.339 29.96C114.672 30.52 113.832 30.8 112.819 30.8C110.526 30.8 109.379 29.6933 109.379 27.48C109.379 24.2 112.166 22.56 117.739 22.56C120.912 22.56 123.099 23.1067 124.299 24.2C125.526 25.2667 126.139 27.24 126.139 30.12V38.24C126.139 39.6267 126.526 40.32 127.299 40.32C128.206 40.32 128.739 38.9467 128.899 36.2L129.499 36.24C129.392 38.5867 128.952 40.2 128.179 41.08C127.406 41.96 126.139 42.4 124.379 42.4C121.179 42.4 119.339 41.4133 118.859 39.44C118.512 40.4533 117.992 41.2 117.299 41.68C116.606 42.16 115.592 42.4 114.259 42.4C110.312 42.4 108.339 40.7867 108.339 37.56C108.339 35.6667 109.086 34.3733 110.579 33.68C112.099 32.96 114.419 32.6 117.539 32.6ZM115.939 37.52C115.939 38.9067 116.006 39.8 116.139 40.2C116.299 40.6 116.579 40.8 116.979 40.8C117.406 40.8 117.792 40.4667 118.139 39.8C118.512 39.1067 118.699 38.16 118.699 36.96V33.24H118.419C116.766 33.24 115.939 34.4533 115.939 36.88V37.52ZM143.252 24.08C142.266 24.08 141.399 24.72 140.652 26C139.906 27.28 139.532 28.8 139.532 30.56V41.28H142.372V42H129.892V41.28H132.092V23.68H129.892V22.96H139.532V26.8C139.879 25.44 140.546 24.4 141.532 23.68C142.519 22.9333 143.639 22.56 144.892 22.56C146.146 22.56 147.159 22.92 147.932 23.64C148.732 24.3333 149.132 25.3333 149.132 26.64C149.132 27.92 148.839 28.9067 148.252 29.6C147.666 30.2933 146.759 30.64 145.532 30.64C144.332 30.64 143.439 30.24 142.852 29.44C142.292 28.64 142.226 27.5333 142.652 26.12H144.092C144.759 24.76 144.479 24.08 143.252 24.08ZM162.386 42V41.28H164.226L159.706 32L158.946 32.2V41.28H160.786V42H149.306V41.28H151.506V12.72H149.146V12H158.946V31.4L159.586 31.16L168.586 23.68H164.826V22.96H172.706V23.68H169.906L165.146 27.72L172.066 41.28H173.506V42H162.386ZM183.615 42.4C180.175 42.4 177.589 41.52 175.855 39.76C174.149 37.9733 173.295 35.5067 173.295 32.36C173.295 29.1867 174.255 26.76 176.175 25.08C178.122 23.4 180.589 22.56 183.575 22.56C189.629 22.56 192.535 25.6 192.295 31.68H181.015V33.24C181.015 35.8533 181.349 37.8267 182.015 39.16C182.682 40.4933 183.842 41.16 185.495 41.16C188.589 41.16 190.615 39.5067 191.575 36.2L192.295 36.32C191.789 38.24 190.869 39.7333 189.535 40.8C188.229 41.8667 186.255 42.4 183.615 42.4ZM181.055 30.88H185.175V28.92C185.175 26.76 185.042 25.2933 184.775 24.52C184.535 23.72 184.029 23.32 183.255 23.32C182.509 23.32 181.949 23.7467 181.575 24.6C181.229 25.4267 181.055 26.8667 181.055 28.92V30.88ZM195.72 36.28V23.68H193.52V22.96H195.72V17.8L203.16 15.96V22.96H208.36V23.68H203.16V37.16C203.16 38.4133 203.28 39.3333 203.52 39.92C203.787 40.5067 204.32 40.8 205.12 40.8C205.92 40.8 206.614 40.4 207.2 39.6C207.814 38.8 208.214 37.7067 208.4 36.32L209.08 36.4C208.867 38.24 208.28 39.7067 207.32 40.8C206.36 41.8667 204.774 42.4 202.56 42.4C200.347 42.4 198.654 41.96 197.48 41.08C196.307 40.2 195.72 38.6 195.72 36.28ZM214.303 42.4C213.156 42.4 212.289 42.0667 211.702 41.4C211.143 40.7067 210.863 39.88 210.863 38.92C210.863 37.9333 211.156 37.1067 211.743 36.44C212.356 35.7733 213.209 35.44 214.303 35.44C215.396 35.44 216.263 35.72 216.903 36.28C217.543 36.84 217.863 37.68 217.863 38.8C217.863 39.92 217.556 40.8 216.943 41.44C216.356 42.08 215.476 42.4 214.303 42.4Z" fill="black"/>
</svg>
